<?xml version="1.0" standalone="no"?>
<!DOCTYPE svg PUBLIC "-//W3C//DTD SVG 20010904//EN"
 "http://www.w3.org/TR/2001/REC-SVG-20010904/DTD/svg10.dtd">
<svg version="1.0" xmlns="http://www.w3.org/2000/svg"
 width="2000.000000pt" height="2000.000000pt" viewBox="0 0 2000.000000 2000.000000"
 preserveAspectRatio="xMidYMid meet">
<metadata>
Created by potrace 1.14, written by Peter Selinger 2001-2017
</metadata>
<g transform="translate(0.000000,2000.000000) scale(0.100000,-0.100000)"
fill="#000000" stroke="none">
<path d="M6133 16677 c-6 -7 -27 -23 -46 -37 -45 -33 -72 -72 -97 -144 -19
-57 -20 -82 -20 -836 0 -761 0 -778 21 -844 39 -122 143 -199 273 -200 142 -1
245 79 281 218 21 80 22 1560 1 1647 -16 68 -48 117 -102 159 -21 16 -44 34
-51 40 -18 15 -245 12 -260 -3z"/>
<path d="M9080 16680 c0 -5 -7 -10 -15 -10 -24 0 -123 -106 -137 -147 -10 -30
-14 -357 -18 -1593 l-5 -1555 -1500 -5 -1500 -5 -41 -22 c-22 -12 -57 -40 -78
-63 -75 -84 -71 -24 -74 -910 -2 -568 0 -812 8 -855 19 -94 72 -159 175 -210
39 -20 65 -20 1525 -25 l1485 -5 5 -4235 c4 -3195 8 -4243 17 -4267 17 -47 58
-97 106 -129 23 -16 44 -32 45 -36 5 -10 1839 -10 1844 0 2 4 22 20 45 36 48
32 89 82 106 129 9 24 13 1072 17 4267 l5 4235 1485 5 c1460 5 1486 5 1525 25
103 51 156 116 175 210 8 43 10 287 8 855 l-3 795 -23 47 c-28 56 -72 102
-127 131 l-40 22 -1500 5 -1500 5 -5 1555 c-4 1147 -8 1563 -17 1587 -17 47
-58 97 -106 129 -23 16 -43 32 -45 37 -6 11 -1842 9 -1842 -3z m1430 -2085 c4
-1191 8 -1558 17 -1585 24 -68 80 -127 158 -165 39 -20 71 -20 1528 -25 l1488
-5 2 -487 2 -488 -1500 -2 -1500 -3 -40 -24 c-69 -43 -122 -103 -138 -158 -9
-28 -13 -1144 -17 -4273 l-5 -4235 -505 0 -505 0 -5 4235 c-4 3129 -8 4245
-17 4273 -16 55 -68 113 -139 158 l-39 24 -1500 3 -1500 2 2 488 2 487 1488 5
1488 5 50 27 c61 33 85 53 114 95 53 78 51 8 51 1659 0 842 3 1534 7 1537 3 4
232 6 507 5 l501 -3 5 -1550z"/>
<path d="M13605 16679 c-5 -5 -28 -23 -49 -40 -54 -40 -86 -90 -102 -158 -20
-84 -19 -1570 1 -1655 17 -73 71 -140 146 -180 72 -39 180 -42 252 -7 77 37
132 100 156 177 21 66 21 83 21 844 0 754 -1 779 -20 836 -25 72 -51 111 -97
144 -19 14 -40 31 -48 38 -16 15 -245 16 -260 1z"/>
<path d="M3660 15801 c-150 -51 -236 -184 -208 -321 15 -72 47 -117 154 -219
49 -47 150 -143 224 -215 252 -242 365 -351 594 -571 126 -121 246 -236 266
-255 238 -229 255 -240 377 -240 73 0 91 4 131 27 63 36 109 87 138 152 30 68
30 111 0 185 -20 49 -45 79 -148 180 -117 115 -485 470 -586 564 -26 25 -139
133 -252 242 -424 409 -436 419 -499 453 -40 21 -151 32 -191 18z"/>
<path d="M16195 15802 c-76 -29 -102 -48 -235 -176 -188 -179 -556 -533 -670
-642 -63 -62 -136 -131 -161 -155 -185 -174 -449 -433 -449 -441 0 -5 -9 -30
-21 -55 -49 -108 14 -253 143 -326 40 -23 58 -27 132 -27 130 0 119 -8 491
349 175 168 534 512 580 556 295 282 488 473 506 501 11 19 27 59 33 88 39
164 -88 323 -264 332 -36 2 -74 0 -85 -4z"/>
<path d="M2410 13605 c-25 -13 -67 -46 -93 -74 l-47 -50 0 -126 0 -126 46 -49
c25 -26 68 -60 96 -74 l50 -26 1004 0 1005 0 50 25 c99 51 169 154 169 250 0
96 -70 199 -169 250 l-50 25 -1008 -1 -1008 -1 -45 -23z"/>
<path d="M15476 13604 c-98 -51 -166 -153 -166 -249 0 -96 70 -199 169 -250
l50 -25 1005 0 1004 0 50 26 c28 14 71 48 96 74 l46 49 0 126 0 126 -47 50
c-26 28 -69 61 -96 75 l-49 24 -1006 0 -1007 -1 -49 -25z"/>
</g>
</svg>
